<?xml version="1.0" encoding="utf-8"?>
<!-- Generator: Adobe Illustrator 19.2.1, SVG Export Plug-In . SVG Version: 6.00 Build 0)  -->
<svg version="1.1" id="layer" xmlns="http://www.w3.org/2000/svg" xmlns:xlink="http://www.w3.org/1999/xlink" x="0px" y="0px"
	 viewBox="0 0 652 652" style="enable-background:new 0 0 652 652;" xml:space="preserve">
<style type="text/css">
	.st0{fill:#231815;}
	.st1{fill:none;stroke:#231815;stroke-width:3.0326;}
	.st2{fill:none;stroke:#231815;stroke-width:1.6754;}
</style>
<g>
	<path class="st0" d="M127.7,419c0.2,0,0.3,0,0.5,0c1.7,0,2.3-1.3,2.3-4.1v-17.1c0-2.3-0.2-3-2.6-3h-0.2v-1.1h9.7l3.8,16.1l3.8-16.1
		h9.6v1.1h-0.5c-1.5,0-1.9,0.6-1.9,2.2v19.8c0,1.6,0.4,2.2,1.9,2.2h0.5v1.1h-11V419h0.7c1.5,0,1.9-0.6,1.9-2.2V395l-6,25.2h-2.2
		l-6.1-25v20c0,2.9,0.5,3.9,2.7,3.9v1.1h-7V419z"/>
	<path class="st0" d="M164.3,402.2c2.1,0,2.2,1.9,2.2,6.1v2.5v2.5c0,4.2-0.2,6.1-2.2,6.1c-2.1,0-2.2-1.9-2.2-6.2v-3.9v-0.5
		C162.1,404.4,162.1,402.2,164.3,402.2 M164.3,401.2c-4,0-7.9,4-7.9,9.7c0,5.7,3.8,9.7,7.9,9.7c4.1,0,7.9-4.1,7.9-9.7
		C172.2,405.3,168.4,401.2,164.3,401.2"/>
	<path class="st0" d="M173.7,419h0.9c1.5,0,1.6-0.3,1.6-2v-12.6c0-1.4-0.3-1.8-2-1.8h-0.5v-1.1h0.9c2.2,0,4.4-0.1,6.7-0.3v3.7
		c1.3-2.5,3.4-3.8,5.5-3.8c3.3,0,4.1,2,4.1,5.9v10c0,1.7,0.1,2,1.6,2h0.6v1.1h-9.3V419h0.3c1.5,0,1.6-0.3,1.6-2v-10
		c0-2.3-0.3-3.3-1.5-3.3c-1.1,0-2.7,1.9-2.7,5.4v7.9c0,1.5,0.1,2,1.4,2h0.2v1.1h-9.3V419z"/>
	<path class="st0" d="M203.7,419h0.4v1.1h-9.8V419h0.8c1.5,0,1.6-0.3,1.6-2v-12.6c0-1.4-0.3-1.8-1.9-1.8h-0.5v-1.1h0.8
		c2.3,0,4.6-0.1,6.9-0.3v15.8C202,418.9,202.1,419,203.7,419 M199.4,393.9c1.8,0,3.1,1.4,3.1,3.1c0,1.8-1.4,3.1-3.1,3.1
		c-1.7,0-3.1-1.4-3.1-3.1C196.3,395.3,197.6,393.9,199.4,393.9"/>
	<path class="st0" d="M217,415.5c0,3.5-1.4,5.1-4.5,5.1c-3.5,0-4.5-1.8-4.5-5.5v-11.9h-2.4v-1.5c3-0.6,5.3-3.2,6.2-7.3h1.4v7.2h3.7
		v1.6h-3.7v13.4c0,1.4,0.2,2.1,1,2.1c1.1,0,1.4-1.2,1.4-3.9v-0.4h1.3V415.5z"/>
	<path class="st0" d="M226.9,402.2c2.1,0,2.2,1.9,2.2,6.1v2.5v2.5c0,4.2-0.2,6.1-2.2,6.1c-2.1,0-2.2-1.9-2.2-6.2v-3.9v-0.5
		C224.6,404.4,224.7,402.2,226.9,402.2 M226.9,401.2c-4,0-7.9,4-7.9,9.7c0,5.7,3.8,9.7,7.9,9.7c4.1,0,7.9-4.1,7.9-9.7
		C234.7,405.3,230.9,401.2,226.9,401.2"/>
	<path class="st0" d="M236.2,419h0.9c1.5,0,1.6-0.3,1.6-2v-12.6c0-1.4-0.3-1.8-2-1.8h-0.5v-1.1h1.2c2.2,0,4.3-0.1,6.5-0.3v4.3
		c1-2.8,2.6-4.3,4.4-4.3c1.7,0,3,1.3,3,3c0,1.8-1.1,3.1-2.8,3.1c-1.1,0-1.9-0.6-2.2-1.5c-0.3-0.7-0.3-1.1-0.7-1.1
		c-0.8,0-1.6,1.9-1.6,5.7v6.7c0,1.8,0.2,2,1.8,2h0.7v1.1h-10.2V419z"/>
	<path class="st0" d="M261.5,419h0.4v1.1H252V419h0.8c1.5,0,1.6-0.3,1.6-2v-12.6c0-1.4-0.3-1.8-1.9-1.8H252v-1.1h0.8
		c2.3,0,4.6-0.1,6.9-0.3v15.8C259.7,418.9,259.9,419,261.5,419 M257.1,393.9c1.8,0,3.1,1.4,3.1,3.1c0,1.8-1.4,3.1-3.1,3.1
		c-1.7,0-3.1-1.4-3.1-3.1C254,395.3,255.3,393.9,257.1,393.9"/>
	<path class="st0" d="M263.2,419h0.9c1.5,0,1.6-0.3,1.6-2v-12.6c0-1.4-0.3-1.8-2-1.8h-0.5v-1.1h0.9c2.2,0,4.4-0.1,6.7-0.3v3.7
		c1.3-2.5,3.4-3.8,5.5-3.8c3.3,0,4.1,2,4.1,5.9v10c0,1.7,0.1,2,1.6,2h0.6v1.1h-9.3V419h0.3c1.5,0,1.6-0.3,1.6-2v-10
		c0-2.3-0.3-3.3-1.5-3.3c-1.1,0-2.7,1.9-2.7,5.4v7.9c0,1.5,0.1,2,1.4,2h0.2v1.1h-9.3V419z"/>
	<path class="st0" d="M287.8,422.1c5.8,0.6,9.4-0.3,9.4,2.3c0,1.6-2.1,2.9-5.7,2.9c-3.7,0-5.7-1.2-5.7-2.9
		C285.7,423.4,286.4,422.6,287.8,422.1 M287.5,413.3c-2.1,1.6-3.1,3.1-3.1,4.9c0,1.5,0.7,2.6,2.1,3.4c-2,0.8-3,1.8-3,3.1
		c0,2.3,2.6,3.7,7.7,3.7c5.6,0,8.9-2.4,8.9-6c0-3.4-2.3-4.8-6.8-4.9c-3.8-0.1-6-0.3-6-2c0-0.6,0.4-1.2,1.2-1.7
		c0.9,0.3,1.8,0.5,2.8,0.5c4.1,0,7.4-2.8,7.4-6.6c0-2.2-1.1-4.1-3.2-5.4c0.2-0.7,0.5-1.1,0.9-1.1c0.6,0,1.2,0.9,2.2,0.9
		c0.9,0,1.7-0.8,1.7-1.9c0-1.2-1-2.2-2.2-2.2c-1.4,0-2.7,1.3-3.6,3.8c-1.1-0.4-2.1-0.6-3.2-0.6c-4,0-7,2.8-7,6.5
		C284.5,410.1,285.6,412.1,287.5,413.3 M293.1,410.6c0,1.8-0.3,2.7-1.6,2.7c-1.3,0-1.5-0.9-1.5-2.7V405c0-1.7,0.3-2.7,1.5-2.7
		c1.3,0,1.6,0.9,1.6,2.7V410.6z"/>
	<path class="st0" d="M325,419h0.6v1.1h-10.9V419h0.5c1.5,0,1.9-0.6,1.9-2.2v-7.7l-4.4-10.9c-0.9-2.1-2-3.3-3.5-3.4v-1.1h11v1.1
		c-1.3,0-1.9,0.3-1.9,1.2c0,0.3,0.1,0.7,0.3,1.2l3.8,9.5l3.7-8.8c0.3-0.7,0.4-1.3,0.4-1.8c0-0.8-0.7-1.2-2-1.2h-0.3v-1.1h7.1v1.1
		c-1.6,0.1-2.7,1.1-3.5,3.1l-4.6,10.9v8C323.1,418.5,323.5,419,325,419"/>
	<path class="st0" d="M339,402.2c2.1,0,2.2,1.9,2.2,6.1v2.5v2.5c0,4.2-0.2,6.1-2.2,6.1c-2,0-2.2-1.9-2.2-6.2v-3.9v-0.5
		C336.8,404.4,336.8,402.2,339,402.2 M339,401.2c-4,0-7.9,4-7.9,9.7c0,5.7,3.8,9.7,7.9,9.7c4.1,0,7.9-4.1,7.9-9.7
		C346.9,405.3,343.1,401.2,339,401.2"/>
	<path class="st0" d="M365.1,417.3c0,1.4,0.3,1.8,2,1.8h0.5v1.1c-2.5,0-5,0.1-7.6,0.2v-3.6c-1.3,2.5-3.4,3.8-5.5,3.8
		c-3.2,0-4.1-2-4.1-5.9v-10c0-1.6-0.1-2-1.6-2h-0.6v-1.1c2.5,0,5.1-0.1,7.5-0.3v13.3c0,2.2,0.3,3.3,1.4,3.3c1.3,0,2.8-2,2.8-5.4
		v-7.9c0-1.5-0.2-2-1.7-2h-0.5v-1.1h0.9c2.5,0,4.7-0.1,6.6-0.3V417.3z"/>
	<path class="st0" d="M368.8,419h0.9c1.5,0,1.6-0.3,1.6-2v-12.6c0-1.4-0.3-1.8-2-1.8h-0.5v-1.1h1.2c2.2,0,4.3-0.1,6.5-0.3v4.3
		c1-2.8,2.6-4.3,4.4-4.3c1.7,0,3,1.3,3,3c0,1.8-1.1,3.1-2.8,3.1c-1.1,0-1.9-0.6-2.2-1.5c-0.3-0.7-0.3-1.1-0.7-1.1
		c-0.8,0-1.6,1.9-1.6,5.7v6.7c0,1.8,0.2,2,1.8,2h0.7v1.1h-10.2V419z"/>
	<path class="st0" d="M402,416.9c0,1.6,0.4,2.2,1.9,2.2h0.4v1.1h-10.7V419h0.5c1.5,0,1.9-0.6,1.9-2.2v-19.8c0-1.6-0.4-2.2-1.9-2.2
		h-0.5v-1.1h10.7v1.1H404c-1.5,0-1.9,0.6-1.9,2.2v7.2h6.7v-7.2c0-1.6-0.4-2.2-1.9-2.2h-0.4v-1.1h10.7v1.1h-0.5
		c-1.5,0-1.9,0.6-1.9,2.2v19.8c0,1.6,0.4,2.2,1.9,2.2h0.5v1.1h-10.7V419h0.4c1.5,0,1.9-0.6,1.9-2.2v-10.6H402V416.9z"/>
	<path class="st0" d="M424.5,410v-4.7c0-2,0.5-3,2-3c1.4,0,2,1,2,3v4.7H424.5z M434.2,414.1h-1.3c-0.4,3.2-2.2,5-4.7,5
		c-2.5,0-3.7-1.7-3.7-5v-2.4h9.7V411c0-6.3-2.9-9.8-7.5-9.8c-4.7,0-7.7,3.4-7.7,9.2c0,6.5,3.3,10.3,8.2,10.3
		C431.1,420.6,433.8,418.1,434.2,414.1"/>
	<path class="st0" d="M446,409.3v6.6c-0.5,1.2-1.5,2-2.4,2c-1.3,0-1.6-1.2-1.6-3.4C442,410.9,442.6,410.9,446,409.3 M446.2,417.3
		c0.5,2.1,1.9,3.1,4.1,3.1c2.9,0,3.7-1.4,3.7-4.1v-1.1h-1.1v1.3c0,1.4-0.2,2-0.9,2c-0.5,0-0.8-0.5-0.8-1.4V408
		c0-4.6-1.6-6.8-6.7-6.8c-4.4,0-7.1,2-7.1,4.4c0,1.5,1.1,2.7,2.7,2.7c1.4,0,2.5-1.1,2.5-2.4c0-1.5-1.4-1.6-1.4-2.4
		c0-0.7,0.9-1.1,2.4-1.1c1.8,0,2.4,0.8,2.4,2.9v3c-2.4,1.1-4.3,1.4-5.6,1.8c-2.6,0.9-3.8,2.6-3.8,5.2c0,3.1,1.9,5.2,4.3,5.2
		C443,420.5,444.7,419.5,446.2,417.3"/>
	<path class="st0" d="M455.6,394.7h-0.5v-1.1h0.8c2.3,0,4.6-0.1,6.9-0.3v23.7c0,1.8,0.1,2,1.8,2h0.4v1.1h-9.9V419h0.9
		c1.5,0,1.6-0.3,1.6-2v-20.6C457.6,395.1,457.2,394.7,455.6,394.7"/>
	<path class="st0" d="M477.8,415.5c0,3.5-1.4,5.1-4.5,5.1c-3.5,0-4.5-1.8-4.5-5.5v-11.9h-2.4v-1.5c3-0.6,5.3-3.2,6.2-7.3h1.4v7.2
		h3.7v1.6H474v13.4c0,1.4,0.2,2.1,1,2.1c1.1,0,1.4-1.2,1.4-3.9v-0.4h1.3V415.5z"/>
	<path class="st0" d="M479.2,419h0.8c1.5,0,1.6-0.3,1.6-2v-20.6c0-1.4-0.3-1.8-1.9-1.8h-0.5v-1.1h0.9c2.2,0,4.4-0.1,6.8-0.3v11.5
		c1.3-2.4,3.3-3.7,5.4-3.7c3.3,0,4.1,2,4.1,5.9v10c0,1.7,0.1,2,1.6,2h0.6v1.1h-9.3V419h0.2c1.5,0,1.6-0.3,1.6-2v-10
		c0-2.3-0.2-3.3-1.5-3.3c-1.1,0-2.7,1.9-2.7,5.4v7.9c0,1.5,0.1,2,1.4,2h0.2v1.1h-9.3V419z"/>
	<path class="st1" d="M586.9,406.9c0-14.6-121.5-26.4-271.5-26.4S44,392.3,44,406.9c0,14.6,121.5,26.4,271.5,26.4
		S586.9,421.5,586.9,406.9z"/>
	<path class="st0" d="M229.3,216.9c0-4,3.3-7.3,7.3-7.3h28.9c4,0,8.7,3,10.4,6.6l26.3,54.7c1.7,3.6,3.2,3.3,3.2-0.7v-53.2
		c0-4,3.3-7.3,7.3-7.3h24.8c4,0,7.3,3.3,7.3,7.3v133.8c0,4-3.3,7.3-7.3,7.3h-28.9c-4,0-8.7-3-10.3-6.6L272.8,297
		c-1.7-3.6-3.1-3.3-3.1,0.7v52.9c0,4-3.3,7.3-7.3,7.3h-25.9c-4,0-7.3-3.3-7.3-7.3V216.9z M332.4,330.4V229.5
		c-0.5-3.3-3.3-5.9-6.7-5.9h-0.1c-3.7,0-6.8,3.1-6.8,6.8v93.8c0,2-1.7,2.4-2.6,0.6c-0.8-1.8-45.9-94.2-45.9-94.2
		c-2.7-4.1-7.3-6.8-12.5-6.8c-8,0-14.5,6.3-14.9,14.2c0,0,0,98.1,0,98.2c0,3.4,2.5,6.3,5.9,6.7h1.9c3.1-0.4,5.5-2.9,5.8-6v-94.3
		c0-3.8,1.8-2.7,2.7-0.7c0.9,2,46.8,94.7,46.8,94.7c2.3,3.5,6.1,5.9,10.5,6.4h3.2C326.3,342.3,331.6,337,332.4,330.4"/>
	<path class="st0" d="M367.6,357.9c-4,0-7.3-3.3-7.3-7.3V216.9c0-4,3.3-7.3,7.3-7.3h25.9c4,0,7.3,3.3,7.3,7.3v133.8
		c0,4-3.3,7.3-7.3,7.3H367.6z M380.9,343.8c3.9,0,7.1-3.9,7.1-8.8V231.7c0-4.8-3.2-8.8-7.1-8.8c-3.9,0-7.1,3.9-7.1,8.8V335
		C373.7,339.8,376.9,343.8,380.9,343.8"/>
	<path class="st0" d="M118.8,215.8c0-3.4-2.8-6.2-6.2-6.2H26.1c-3.4,0-6.2,2.8-6.2,6.2v22.6c0,3.4,2.8,6.2,6.2,6.2h19.1
		c1.6,0,3.1,1.3,3.1,3v104.2c0,3.4,2.8,6.2,6.2,6.2h28.6c3.4,0,6.2-2.8,6.2-6.2V247.6c0-1.3,1.1-3.1,3.2-3.1h20.1
		c3.4,0,6.2-2.8,6.2-6.2V215.8z"/>
	<path class="st0" d="M218.2,350.1L184.4,215c-0.8-3-3.9-5.4-6.9-5.4h-34.6c-3.1,0-6.2,2.4-6.9,5.4l-33.8,135.1
		c-1,3.9,1.7,7.9,6,7.9h24.6c3.1,0,6.1-2.5,6.7-5.5l2.5-12.2c0.4-1.8,1.5-2.8,3.1-2.8h30.5c1.6,0,2.7,0.9,3.1,2.8l2.5,12.2
		c0.6,3,3.6,5.5,6.7,5.5h24.6C216.5,357.9,219.2,354,218.2,350.1 M170.3,312.9H152c-2.6,0-4.2-2-3.7-4.5l12.4-61.7
		c0.5-2.5,1.3-2.5,1.8,0l11.6,61.6C174.5,310.8,172.8,312.9,170.3,312.9"/>
	<path class="st0" d="M507.9,215.8c0-3.4-2.8-6.2-6.2-6.2h-86.4c-3.4,0-6.2,2.8-6.2,6.2v22.6c0,3.4,2.8,6.2,6.2,6.2h19.1
		c1.6,0,3.1,1.3,3.1,3v104.2c0,3.4,2.8,6.2,6.2,6.2h28.6c3.4,0,6.2-2.8,6.2-6.2V247.6c0-1.3,1.1-3.1,3.1-3.1h20.2
		c3.4,0,6.2-2.8,6.2-6.2V215.8z"/>
	<path class="st0" d="M607.3,350.1L573.5,215c-0.7-3-3.9-5.4-6.9-5.4h-34.7c-3.1,0-6.2,2.4-6.9,5.4l-33.8,135.1
		c-1,3.9,1.7,7.9,6,7.9h24.6c3.1,0,6.1-2.5,6.7-5.5l2.5-12.2c0.4-1.8,1.5-2.8,3.1-2.8h30.5c1.6,0,2.7,0.9,3.1,2.8l2.5,12.2
		c0.6,3,3.6,5.5,6.7,5.5h24.6C605.6,357.9,608.3,354,607.3,350.1 M559.4,312.9h-18.2c-2.6,0-4.2-2-3.7-4.5l12.4-61.7
		c0.5-2.5,1.3-2.5,1.8,0l11.6,61.6C563.6,310.8,561.9,312.9,559.4,312.9"/>
	<ellipse class="st2" cx="608.2" cy="221.4" rx="11.8" ry="11.8"/>
	<path class="st0" d="M605,215.9h4.7c0.7,0,1.2,0.1,1.6,0.3c0.7,0.4,1.1,1.1,1.1,2.1c0,0.9-0.3,1.6-0.8,2c-0.5,0.4-1.2,0.5-2.2,0.5
		H605V215.9z M605,228.5v-6.1h4.4c0.8,0,1.4,0.1,1.7,0.3c0.7,0.3,1,0.9,1,1.9l0.1,2.4c0,0.6,0.1,0.9,0.1,1.1c0,0.2,0.1,0.4,0.2,0.5
		h2.4v-0.3c-0.3-0.1-0.5-0.4-0.6-0.9c-0.1-0.3-0.1-0.7-0.1-1.2l-0.1-1.9c0-0.8-0.2-1.4-0.5-1.8c-0.3-0.4-0.7-0.7-1.3-0.9
		c0.6-0.3,1.1-0.8,1.5-1.3c0.4-0.5,0.5-1.2,0.5-2.1c0-1.6-0.7-2.8-2-3.4c-0.7-0.3-1.6-0.5-2.7-0.5h-6.6v14.3H605z"/>
</g>
</svg>
