<svg height="472pt" viewBox="-28 0 472 472" width="472pt" xmlns="http://www.w3.org/2000/svg"><path d="m200 280h16v16h-16zm0 0"/><path d="m112 120h16v16h-16zm0 0"/><path d="m288 120h16v16h-16zm0 0"/><path d="m416 200c0-4.417969-3.582031-8-8-8h-93.695312l4.367187-24h5.328125c3.378906-.003906 6.390625-2.128906 7.527344-5.3125l20-56-15.054688-5.375-18.074218 50.6875h-70.398438v16h54.398438l-4.367188 24h-180.078125l-4.351563-24h54.398438v-16h-70.398438l-18.113281-50.6875-15.054687 5.375 20 56c1.140625 3.199219 4.171875 5.328125 7.566406 5.3125h5.328125l4.367187 24h-37.695312c-17.671875 0-32 14.328125-32 32v56c0 4.417969 3.582031 8 8 8h48v-16h-40c0-8.835938 7.164062-16 16-16h46.023438l-12.421876 56h-89.601562c-4.417969 0-8 3.582031-8 8v48c0 4.417969 3.582031 8 8 8h88v96h16v-66.527344l72 39.28125v27.246094h16v-24h16v24h16v-27.246094l72-39.28125v66.527344h16v-96h32c17.671875 0 32-14.328125 32-32v-56c0-4.417969-3.582031-8-8-8h-48v16h40c0 8.835938-7.164062 16-16 16h-33.601562l-12.4375-56h102.039062c4.417969 0 8-3.582031 8-8zm-368 44.296875v-20.296875c0-8.835938 7.164062-16 16-16h8v16h16v-16h24v16h16v-16h24v16h16v-16h24v16h16v-16h24v16h16v-16h24v16h16v-16h24v16h16v-16h28.449219c-5.933594 9.84375-5.933594 22.15625 0 32h-292.449219c-5.621094-.007812-11.140625 1.472656-16 4.296875zm-32 115.703125v-32h16c8.835938 0 16 7.164062 16 16s-7.164062 16-16 16zm288 27.246094-82.039062 44.753906h-27.921876l-82.039062-44.753906v-11.246094h192zm64-63.542969v20.296875c0 8.835938-7.164062 16-16 16h-8v-16h-16v16h-24v-16h-16v16h-24v-16h-16v16h-24v-16h-16v16h-24v-16h-16v16h-24v-16h-16v16h-24v-16h-16v16h-28.449219c5.933594-9.84375 5.933594-22.15625 0-32h292.449219c5.621094.007812 11.140625-1.472656 16-4.296875zm-65.976562-11.703125h-188.046876l12.421876-56h163.203124zm97.976562-72h-16c-8.835938 0-16-7.164062-16-16s7.164062-16 16-16h16zm0 0"/><path d="m35.070312 50.160156c-10.589843 11.574219-15.847656 27.054688-14.503906 42.6875l7.289063 83.839844 15.945312-1.375-7.296875-83.847656c-.972656-11.167969 2.789063-22.234375 10.367188-30.496094 7.574218-8.261719 18.269531-12.96875 29.480468-12.96875h263.296876c11.210937 0 21.90625 4.707031 29.480468 12.96875 7.578125 8.261719 11.339844 19.328125 10.367188 30.496094l-7.296875 83.847656 15.945312 1.375 7.289063-83.839844c1.355468-15.632812-3.90625-31.121094-14.511719-42.691406-10.605469-11.566406-25.578125-18.15625-41.273437-18.15625h-263.296876c-15.695312.015625-30.664062 6.601562-41.28125 18.160156zm0 0"/><path d="m88 0h208v16h-208zm0 0"/><path d="m312 0h16v16h-16zm0 0"/></svg>