<svg xmlns="http://www.w3.org/2000/svg" xmlns:xlink="http://www.w3.org/1999/xlink" viewBox="0 0 375 187"><defs><style>.cls-1,.cls-2{opacity:0.9;}.cls-1{fill:url(#linear-gradient);}</style><linearGradient id="linear-gradient" x1="187.5" y1="187" x2="187.5" gradientUnits="userSpaceOnUse"><stop offset="0" stop-color="#fff"/><stop offset="1" stop-color="#231f20"/></linearGradient></defs><title>Challenges</title><g id="Layer_2" data-name="Layer 2"><g id="Layer_1-2" data-name="Layer 1"><rect class="cls-1" width="375" height="187"/><path class="cls-2" d="M0,161.68a7,7,0,0,1,1.83,0c5.89,1.72,11.93.77,17.81.43,3.81-.22,7.7-.5,11.51-.64,5.81-.21,11.63-.76,17.46-.45,2.5.13,5,.2,7.48.26a6.27,6.27,0,0,1,2.11.4,6.84,6.84,0,0,0,4.55.35,3.51,3.51,0,0,1,1.82,0c3.77,1,7.61.59,11.43.62,7.72.05,15.42,0,23.07-1.26a21.31,21.31,0,0,1,8.59.49,28.1,28.1,0,0,0,7.25.81c9-.13,18,.15,27-.33a15.19,15.19,0,0,1,4.31.3c3.93.89,7.85-.15,11.78,0,9.53.43,19,1.3,28.59,1.37,7.38.06,14.76-.12,22.14-.17,10.88-.09,21.74.53,32.6,1,5.93.26,11.92-.29,17.8.33a185.29,185.29,0,0,0,19.27.75c2.81,0,3.18-.75,2.58-3.46-.74-3.39-1-6.87-1.66-10.3-1.78-9.74-.9-19.53-.77-29.32,0-3.13-.62-6.28.4-9.37a1,1,0,0,0-.55-1.26c-1.48-.66-1.46-1.89-1.33-3.23.33-3.3,1.42-6.54,1.16-9.87-.23-3,0-6.08-.89-9a5,5,0,0,0-.86-2.81c-2.84-6-5.4-12.12-7.91-18.28A139.79,139.79,0,0,1,264,55.59c-.6-2.05-2-3.78-2-6.11,0-1.76,1.11-1.53,2.06-1.58s2.13-.35,2,1.36c-.4,4.27,1.19,8,3.05,11.73,2.23,4.45,4.35,8.95,6.62,13.37a10.7,10.7,0,0,0,6.57,5.74c.58.17,1.23.36,1.73-.14a1.65,1.65,0,0,0,.19-1.87,15.05,15.05,0,0,0-2-3.43,7.76,7.76,0,0,1-1.5-3.11c-.51-3.25,1.2-6.25,3.62-6.77,3.75-.79,7.77.76,8.87,3.78a4.84,4.84,0,0,1-.35,3.87c-.63,1.3-1.37,2.54-2,3.83a3.94,3.94,0,0,0-.45,2.73,1.11,1.11,0,0,0,1.58,1c3.41-1,5.93-2.65,7.07-6.44,1.86-6.18,4.55-12.1,6.43-18.28.24-.8.49-1.59.66-2.41a3.92,3.92,0,0,0-5-4.83c-.73.18-.94.69-1.1,1.3s-.48,1.23-1.12.83c-1-.61-1.78-.15-2.66.13-4,1.24-7.43-.09-10.78-2-.66-.37-.56-.86-.42-1.55,1-4.85,3.91-8.72,6.23-12.9,1-1.83,2.7-3.07,3.94-4.7.71-.94,1.88-.55,2.67.2,1.6,1.53,3.16,3.11,4.68,4.72a5.2,5.2,0,0,1,1.51,3.93c0,.5-.08,1,.37,1.38.82.63.58,1.27.23,2-1.1,2.37-.28,3.91,2.33,4.16A3.93,3.93,0,0,1,310.62,48c.42,1,1.08,1.3,2,.65,1.29-1,2.74-.71,4.17-.7.88,0,1.14.42.72,1.15-1.46,2.53-2.93,5.07-4.46,7.57-.55.88-1.24.9-1.74-.11a6.51,6.51,0,0,1-1-3.29c0-.34.2-.89-.35-.94s-.54.47-.67.83a9.45,9.45,0,0,0-.84,3.37c.13,3.81-1.05,7.31-2.5,10.75a18.19,18.19,0,0,0-1.31,4.27c-.55,3.57-1.85,6.94-2.88,10.38a11.31,11.31,0,0,1-1.77,3.56,7.68,7.68,0,0,0-1.47,5.46c-.25,6.07,0,12.07,2.08,17.87a2.1,2.1,0,0,1-.59,2.57,1.49,1.49,0,0,0-.43,1.92,31.26,31.26,0,0,1,1.64,7.27c.37,3.69,1.8,7.2,1.88,10.94a36.05,36.05,0,0,0,1.15,9.69,21.77,21.77,0,0,1,.78,6.08c0,4.6-.07,9.2,0,13.8,0,3.07.58,3.67,3.47,4.63a7.93,7.93,0,0,0,2.78.34,162.38,162.38,0,0,1,22.28.78c4.6.56,9.23.93,13.83,1.44,5.26.59,10.62.47,15.93.72a17,17,0,0,0,3.8-.42,54.05,54.05,0,0,1,7.92-.87c0,6.09,0,12.19,0,18.29,0,.83-.19,1.16-1,1a2.67,2.67,0,0,0-.49,0q-186,0-371.94,0C.28,187,0,186.71,0,185.46.07,177.53,0,169.61,0,161.68Zm289.5-39.33c-.33,1.3-.53,2.16-.78,3-2.12,7.37-3.68,14.8-2.77,22.55.63,5.33.45,10.73,1.25,16.05.3,2,.76,2.38,2.84,2.41,2.6,0,5-1.08,7.46-1.56.71-.14,1.56-.83,1.38-1.66-.52-2.42-.1-4.86-.4-7.28-.27-2.23-1.38-4.36-1.34-6.53a53.84,53.84,0,0,0-2.53-15.66A42.83,42.83,0,0,0,289.53,122.35Zm13-85.08a3.36,3.36,0,0,0-.58-1.7A14.8,14.8,0,0,0,297.94,31c-.59-.46-1.24-1.37-2.05-.27a1.66,1.66,0,0,0,.27,2.61,30.72,30.72,0,0,1,5.34,4.44,1,1,0,0,0,.71.29C302.61,38,302.56,37.6,302.57,37.27ZM296.1,48.45a66.84,66.84,0,0,1-7.39-2.89,1.44,1.44,0,0,0-1.23,2.6,14.49,14.49,0,0,0,5.89,1.55A3.08,3.08,0,0,0,296.1,48.45Z"/></g></g></svg>