<?xml version="1.0" encoding="iso-8859-1"?>
<!-- Generator: Adobe Illustrator 19.0.0, SVG Export Plug-In . SVG Version: 6.00 Build 0)  -->
<svg version="1.1" id="Capa_1" xmlns="http://www.w3.org/2000/svg" xmlns:xlink="http://www.w3.org/1999/xlink" x="0px" y="0px"
	 viewBox="0 0 512.001 512.001" style="enable-background:new 0 0 512.001 512.001;" xml:space="preserve">
<g>
	<g>
		<g>
			<path d="M234.787,42.516v-12.49c0-16.541-13.459-29.999-30-29.999H64.81c-16.543,0-30.001,13.458-30.001,29.999v12.49
				c-4.378,2.278-9.023,6.441-13.251,13.763C0.356,93.002-2.606,192.006,1.689,272.415c5.648,105.728,23.203,193.415,46.959,234.558
				c1.786,3.094,5.087,4.999,8.659,4.999h154.982c3.573,0,6.873-1.906,8.659-4.999c23.754-41.144,41.31-128.83,46.959-234.558
				c4.297-80.408,1.332-179.413-19.87-216.136C243.811,48.957,239.164,44.794,234.787,42.516z M54.807,30.026
				c0-5.514,4.487-10,10.003-10h139.977c5.515,0,10.002,4.487,10.002,10.001v10h-39.996c-5.521,0-9.999,4.477-9.999,9.999
				c0,16.539-13.456,29.995-29.998,29.995c-16.539,0-29.995-13.456-29.995-29.995c0-5.522-4.475-9.999-9.999-9.999H54.807V30.026z
				 M247.938,271.348c-5.182,96.981-20.989,180.421-41.592,220.628H63.251C42.65,451.77,26.841,368.329,21.659,271.348
				c-5.126-95.941,1.794-178.352,17.219-205.071c2.85-4.936,5.069-6.252,5.931-6.252h41c4.646,22.791,24.847,39.994,48.989,39.994
				c24.143,0,44.345-17.203,48.991-39.994h41c0.862,0,3.081,1.317,5.93,6.252C246.144,92.995,253.065,175.406,247.938,271.348z"/>
			<path d="M134.799,264.283c27.567,0,49.995-22.428,49.995-49.995c0-27.567-22.429-49.996-49.996-49.996
				c-27.567,0-49.994,22.428-49.994,49.996S107.232,264.283,134.799,264.283z M134.799,184.29c16.541,0,29.998,13.456,29.998,29.998
				c0,16.54-13.457,29.997-29.998,29.997c-16.54,0-29.997-13.456-29.997-29.997C104.802,197.747,118.258,184.29,134.799,184.29z"/>
			<path d="M177.039,325.994h-84.48c-5.522,0-9.999,4.477-9.999,9.999c0,5.522,4.477,9.999,9.999,9.999h84.48
				c5.521,0,9.999-4.477,9.999-9.999S182.561,325.994,177.039,325.994z"/>
			<path d="M177.039,365.988h-0.475c-5.523,0-9.999,4.477-9.999,9.999s4.476,9.999,9.999,9.999h0.475
				c5.521,0,9.999-4.477,9.999-9.999S182.561,365.988,177.039,365.988z"/>
			<path d="M147.483,365.988H92.559c-5.522,0-9.999,4.477-9.999,9.999s4.477,9.999,9.999,9.999h54.924
				c5.522,0,9.999-4.477,9.999-9.999S153.006,365.988,147.483,365.988z"/>
			<path d="M503.602,409.72c-3.486-15.271-6.779-29.697-6.779-40.208c0-10.512,3.294-24.936,6.779-40.208
				c7.399-32.414,15.051-65.932-1.361-86.514c-8.329-10.444-21.722-15.74-39.805-15.74c-11.366,0-22.33,2.528-32.932,4.972
				c-9.95,2.294-19.348,4.461-28.436,4.461c-9.091,0-18.488-2.167-28.438-4.461c-10.603-2.445-21.566-4.972-32.932-4.972
				c-18.083,0-31.476,5.295-39.805,15.74c-16.411,20.581-8.759,54.099-1.359,86.513c3.486,15.272,6.779,29.697,6.779,40.209
				c0,10.512-3.294,24.936-6.779,40.209c-7.399,32.413-15.052,65.932,1.359,86.513c8.329,10.444,21.722,15.74,39.805,15.74
				c11.366,0,22.33-2.529,32.932-4.973c9.95-2.295,19.348-4.462,28.438-4.462c9.089,0,18.486,2.167,28.436,4.462
				c10.602,2.445,21.565,4.973,32.932,4.973c18.083,0,31.475-5.295,39.805-15.74C518.654,475.652,511.002,442.134,503.602,409.72z
				 M486.606,483.766c-4.406,5.524-12.312,8.21-24.169,8.21c-9.091,0-18.488-2.167-28.438-4.463
				c-10.603-2.445-21.565-4.973-32.93-4.973c-11.366,0-22.33,2.529-32.932,4.973c-9.95,2.295-19.348,4.461-28.438,4.461
				c-11.857,0-19.764-2.686-24.168-8.21c-10.408-13.052-3.55-43.09,2.501-69.594c3.745-16.402,7.281-31.893,7.281-44.66
				c0-12.766-3.537-28.258-7.281-44.659c-6.05-26.503-12.909-56.543-2.501-69.594c4.404-5.524,12.312-8.21,24.168-8.21
				c9.091,0,18.488,2.167,28.438,4.461c10.602,2.445,21.566,4.972,32.932,4.972c11.365,0,22.328-2.528,32.929-4.972
				c9.95-2.294,19.349-4.461,28.439-4.461c11.858,0,19.764,2.686,24.169,8.21c10.407,13.052,3.551,43.091-2.5,69.595
				c-3.745,16.401-7.281,31.894-7.281,44.659c0,12.766,3.537,28.258,7.281,44.659C490.157,440.673,497.013,470.713,486.606,483.766z
				"/>
			<path d="M381.07,317.275c-5.521,0-9.999,4.477-9.999,9.999v84.478c0,5.522,4.478,9.999,9.999,9.999
				c5.521,0,9.999-4.477,9.999-9.999v-84.478C391.069,321.751,386.592,317.275,381.07,317.275z"/>
			<path d="M421.066,346.829c-5.522,0-9.999,4.477-9.999,9.999v54.924c0,5.522,4.477,9.999,9.999,9.999
				c5.521,0,9.999-4.477,9.999-9.999v-54.924C431.065,351.306,426.589,346.829,421.066,346.829z"/>
			<path d="M421.066,317.275c-5.522,0-9.999,4.477-9.999,9.999v0.474c0,5.522,4.477,9.999,9.999,9.999
				c5.521,0,9.999-4.477,9.999-9.999v-0.474C431.065,321.751,426.589,317.275,421.066,317.275z"/>
			<path d="M365.794,209.804c16.54,0,29.996-13.457,29.996-29.996c0-16.541-13.456-29.998-29.996-29.998
				c-16.54,0-29.998,13.457-29.998,29.998C335.797,196.348,349.254,209.804,365.794,209.804z M365.794,169.809
				c5.513,0,9.998,4.487,9.998,10c0,5.513-4.484,9.998-9.998,9.998c-5.514,0-10-4.484-10-9.998
				C355.794,174.294,360.28,169.809,365.794,169.809z"/>
			<path d="M426.423,151.498c22.052,0,39.993-17.941,39.993-39.995c0-22.053-17.941-39.994-39.993-39.994
				c-22.054,0-39.995,17.941-39.995,39.994C386.428,133.557,404.369,151.498,426.423,151.498z M426.423,91.506
				c11.025,0,19.995,8.97,19.995,19.996c0,11.026-8.97,19.997-19.995,19.997c-11.026,0-19.997-8.971-19.997-19.997
				C406.426,100.477,415.396,91.506,426.423,91.506z"/>
			<path d="M417.681,183.682c0,5.506,4.492,10,9.998,10c5.507,0,10.001-4.494,10.001-10s-4.494-9.999-10.001-9.999
				C422.173,173.683,417.681,178.175,417.681,183.682z"/>
		</g>
	</g>
</g>
<g>
</g>
<g>
</g>
<g>
</g>
<g>
</g>
<g>
</g>
<g>
</g>
<g>
</g>
<g>
</g>
<g>
</g>
<g>
</g>
<g>
</g>
<g>
</g>
<g>
</g>
<g>
</g>
<g>
</g>
</svg>
