<svg id="Layer_1" height="512" viewBox="0 0 128 128" width="512" xmlns="http://www.w3.org/2000/svg" data-name="Layer 1"><path d="m107.348 115.25h-8.688a13.294 13.294 0 0 0 4.365-9.841 13.431 13.431 0 0 0 -8.467-12.416 18.747 18.747 0 0 0 -18.342-15.136c-.45 0-.9.018-1.341.051a149.544 149.544 0 0 0 -1.168-28.8c0-.016 0-.031 0-.047a1.733 1.733 0 0 0 -.071-.468 207.324 207.324 0 0 0 -3.836-20.479 1.743 1.743 0 0 0 -.127-.532c-2.496-10.316-4.913-17.03-4.973-17.182a1.75 1.75 0 0 0 -1.639-1.15h-26a1.75 1.75 0 0 0 -1.646 1.15 180.366 180.366 0 0 0 -5.043 17.42c-.014.051-.028.1-.037.155a203.793 203.793 0 0 0 -3.973 21.305c-1.453 11.2-2.137 24.933-.009 38.433 0 .024-.007.047-.007.071a1.737 1.737 0 0 0 .119.623 74.51 74.51 0 0 0 9.49 26.842h-15.3a1.75 1.75 0 0 0 0 3.5h86.7a1.75 1.75 0 0 0 0-3.5zm-16.082-20.714a1.749 1.749 0 0 0 1.234 1.445 9.84 9.84 0 0 1 -2.816 19.269h-26.261a12.2 12.2 0 0 1 -2.209-24.2 1.751 1.751 0 0 0 1.267-.973 15.179 15.179 0 0 1 28.785 4.455zm-30.474-8.5h-31.158c-1.7-11.844-1.244-24.129.125-35.225h40.641a143.448 143.448 0 0 1 .928 27.711 18.851 18.851 0 0 0 -10.537 7.513zm-27.31-56.01h33.176c1.187 5.078 2.363 10.946 3.275 17.285h-39.708c.906-6.342 2.075-12.211 3.256-17.286zm19.39-17.276a3.3 3.3 0 0 1 -5.626 0zm-14.568 0h5.168a6.813 6.813 0 0 0 13.175 0h5.169c.716 2.118 2.3 7.044 4 13.775h-31.491c1.685-6.736 3.266-11.656 3.975-13.775zm1.8 102.5a68.113 68.113 0 0 1 -9.9-25.715h25.248a15.67 15.67 0 0 0 -1.892 25.715z"/><path d="m61.632 65.75a5.168 5.168 0 1 0 5.168 5.168 5.174 5.174 0 0 0 -5.168-5.168zm0 6.836a1.668 1.668 0 1 1 1.668-1.668 1.67 1.67 0 0 1 -1.668 1.668z"/><path d="m92.112 70.632a6.858 6.858 0 1 0 -6.858-6.858 6.866 6.866 0 0 0 6.858 6.858zm0-10.216a3.358 3.358 0 1 1 -3.358 3.358 3.361 3.361 0 0 1 3.358-3.357z"/><path d="m70.421 97.03a1.75 1.75 0 0 0 1.521-2.611 3 3 0 1 1 5.225-2.952 1.75 1.75 0 1 0 3.047-1.722 6.5 6.5 0 0 0 -11.314 6.395 1.748 1.748 0 0 0 1.521.89z"/><path d="m79.05 104.746a1.75 1.75 0 1 0 2.926 1.92 1.539 1.539 0 0 1 2.574 1.688 1.75 1.75 0 0 0 2.928 1.918 5.039 5.039 0 0 0 -8.428-5.526z"/></svg>