<?xml version="1.0" encoding="iso-8859-1"?>
<!-- Generator: Adobe Illustrator 19.0.0, SVG Export Plug-In . SVG Version: 6.00 Build 0)  -->
<svg version="1.1" id="Layer_1" xmlns="http://www.w3.org/2000/svg" xmlns:xlink="http://www.w3.org/1999/xlink" x="0px" y="0px"
	 viewBox="0 0 512 512" style="enable-background:new 0 0 512 512;" xml:space="preserve">
<g>
	<g>
		<g>
			<path d="M447.488,224c-0.013-3.28-1.021-6.49-3.759-8.531l-81.063-60.797v-16.005C362.667,62.208,300.458,0,224,0
				S85.333,62.208,85.333,138.667v266.667H74.667C68.771,405.333,64,410.104,64,416v42.667c0,5.896,4.771,10.667,10.667,10.667
				h10.667v32C85.333,507.229,90.104,512,96,512h42.667c5.896,0,10.667-4.771,10.667-10.667v-32H160
				c5.896,0,10.667-4.771,10.667-10.667V416c0-5.896-4.771-10.667-10.667-10.667h-10.667V138.667C149.333,97.5,182.833,64,224,64
				s74.667,33.5,74.667,74.667v16.005l-81.063,60.797c-2.738,2.042-3.746,5.251-3.759,8.531h-0.512v42.667
				c0,5.896,4.771,10.667,10.667,10.667h213.333c5.896,0,10.667-4.771,10.667-10.667V224H447.488z M128,490.667h-21.333v-21.333H128
				V490.667z M149.333,448h-64v-21.333h64V448z M224,42.667c-52.938,0-96,43.063-96,96v266.667h-21.333V138.667
				c0-64.698,52.646-117.333,117.333-117.333s117.333,52.635,117.333,117.333v10.667H320v-10.667
				C320,85.729,276.938,42.667,224,42.667z M312.896,170.667h35.542l56.896,42.667H256L312.896,170.667z M426.667,256h-192v-21.333
				h192V256z"/>
			<path d="M268.75,298.875c-5.5-1.177-11.375,2.573-12.542,8.365l-21.333,106.667c-1.167,5.781,2.583,11.396,8.375,12.552
				c0.688,0.146,1.396,0.208,2.104,0.208c4.979,0,9.417-3.5,10.438-8.573l21.333-106.667
				C278.292,305.646,274.542,300.031,268.75,298.875z"/>
			<path d="M310.396,298.719c-5.729-0.531-11.083,3.688-11.667,9.552l-10.667,106.667c-0.604,5.865,3.688,11.094,9.542,11.677
				c0.354,0.031,0.729,0.052,1.083,0.052c5.396,0,10.042-4.104,10.583-9.604l10.667-106.667
				C320.542,304.531,316.25,299.302,310.396,298.719z"/>
			<path d="M362.604,308.271c-0.583-5.865-5.896-10.115-11.667-9.552c-5.854,0.583-10.146,5.813-9.542,11.677l10.667,106.667
				c0.542,5.5,5.188,9.604,10.583,9.604c0.354,0,0.729-0.021,1.083-0.052c5.854-0.583,10.146-5.813,9.542-11.677L362.604,308.271z"
				/>
			<path d="M405.125,307.24c-1.167-5.792-7.063-9.552-12.542-8.365c-5.792,1.156-9.542,6.771-8.375,12.552l21.333,106.667
				c1.021,5.073,5.458,8.573,10.438,8.573c0.708,0,1.417-0.063,2.104-0.208c5.792-1.156,9.542-6.771,8.375-12.552L405.125,307.24z"
				/>
		</g>
	</g>
</g>
<g>
</g>
<g>
</g>
<g>
</g>
<g>
</g>
<g>
</g>
<g>
</g>
<g>
</g>
<g>
</g>
<g>
</g>
<g>
</g>
<g>
</g>
<g>
</g>
<g>
</g>
<g>
</g>
<g>
</g>
</svg>
