<svg id="Capa_1" enable-background="new 0 0 510 510" height="512" viewBox="0 0 510 510" width="512" xmlns="http://www.w3.org/2000/svg"><g><path d="m495 111.54h-42.289v-21.583c0-31.936-25.981-57.917-57.917-57.917h-279.582-.001s-.001 0-.001 0c-31.937 0-57.92 25.983-57.92 57.92v21.58h-42.29c-8.284 0-15 6.716-15 15v60c0 8.284 6.716 15 15 15h42.29v142.5c0 8.284 6.716 15 15 15h11.71v20.46c0 8.284 6.716 15 15 15s15-6.716 15-15v-20.46h29.129c0 9.87.001 93.584.001 103.92 0 8.284 6.716 15 15 15s15-6.716 15-15v-19.92h39.895v19.92c0 8.284 6.716 15 15 15s15-6.716 15-15v-19.92h39.896v19.92c0 8.284 6.716 15 15 15s15-6.716 15-15v-19.92h39.895v19.92c0 8.284 6.716 15 15 15s15-6.716 15-15v-19.92h39.895v19.92c0 8.284 6.716 15 15 15s15-6.716 15-15c0-4.73 0-257.17 0-261.42h42.289c8.284 0 15-6.716 15-15v-60c0-8.284-6.716-15-15-15zm-321.871 301.5c0-7.979 0-90.931 0-107.402l47.021 29.007c4.828 2.979 10.923 2.979 15.751 0l62.02-38.26 62.02 38.26c4.828 2.978 10.923 2.979 15.751 0l47.02-29.007v107.402zm221.665-351c15.394 0 27.917 12.523 27.917 27.917v180.432l-54.895 33.865-62.02-38.26c-4.828-2.978-10.923-2.979-15.751 0l-62.02 38.26-54.896-33.866c0-1.755 0-179.025 0-180.418 0-9.922-2.479-19.467-7.149-27.93zm-307.504 27.92c0-15.395 12.525-27.92 27.92-27.92h.001s.001 0 .001 0c15.528 0 27.917 12.585 27.917 27.93v21.57h-55.839zm-57.29 51.58h113.129v30h-113.129zm57.29 187.5v-127.5h55.839v127.5c-5.697 0-48.518 0-55.839 0zm392.71-157.5h-27.289v-30h27.289z"/></g></svg>