<?xml version="1.0" encoding="iso-8859-1"?>
<!-- Generator: Adobe Illustrator 19.0.0, SVG Export Plug-In . SVG Version: 6.00 Build 0)  -->
<svg version="1.1" id="Capa_1" xmlns="http://www.w3.org/2000/svg" xmlns:xlink="http://www.w3.org/1999/xlink" x="0px" y="0px"
	 viewBox="0 0 512 512" style="enable-background:new 0 0 512 512;" xml:space="preserve">
<g>
	<g>
		<path d="M269.085,165.947c0.709-4.956,1.074-9.97,1.074-15.009c0-57.931-47.131-105.062-105.062-105.062
			c-46.673,0-88.219,31.313-101.029,76.15C6.179,329.14,0,334.481,0,361.062c0,57.931,47.131,105.062,105.062,105.062h340.232
			L512,165.947H269.085z M92.931,130.272c9.148-32.017,38.824-54.378,72.166-54.378c41.379,0,75.044,33.665,75.044,75.044
			c0,18.478-2.914,17.47-42.713,160.092C179.616,278.279,144.892,256,105.062,256c-18.668,0-36.508,5.021-52.025,13.901
			L92.931,130.272z M105.062,436.106c-41.379,0-75.044-33.665-75.044-75.044c0-42.171,34.521-75.044,75.044-75.044
			c41.379,0,75.044,33.665,75.044,75.044c0,7.027-0.969,13.981-2.878,20.665C168.08,413.745,138.404,436.106,105.062,436.106z
			 M421.215,436.106H178.459c8.799-8.573,16.148-18.696,21.541-30.018h227.886L421.215,436.106z M434.556,376.071H210.063
			L244.37,256h216.869L434.556,376.071z M252.946,225.982l8.576-30.018h213.057l-6.67,30.018H252.946z"/>
	</g>
</g>
<g>
	<g>
		<path d="M105.062,316.035c-24.828,0-45.026,20.199-45.026,45.026s20.199,45.026,45.026,45.026s45.026-20.199,45.026-45.026
			S129.889,316.035,105.062,316.035z M105.062,376.071c-8.276,0-15.009-6.733-15.009-15.009s6.733-15.009,15.009-15.009
			s15.009,6.733,15.009,15.009S113.338,376.071,105.062,376.071z"/>
	</g>
</g>
<g>
</g>
<g>
</g>
<g>
</g>
<g>
</g>
<g>
</g>
<g>
</g>
<g>
</g>
<g>
</g>
<g>
</g>
<g>
</g>
<g>
</g>
<g>
</g>
<g>
</g>
<g>
</g>
<g>
</g>
</svg>
