<svg xmlns="http://www.w3.org/2000/svg" viewBox="0 0 404.26 55.76"><defs><style>.cls-1{fill:#005aaa;}.cls-2{fill:#015aaa;}.cls-3{fill:#fefefe;}</style></defs><title>Accuniq</title><g id="Layer_2" data-name="Layer 2"><g id="Layer_1-2" data-name="Layer 1"><path class="cls-1" d="M306.29,28c0,7.82-.1,15.64.06,23.45,0,2.37-.74,3.1-2.91,2.76a6.17,6.17,0,0,0-.86,0c-9.45,0-9.44,0-14.92-7.64S276.54,31.1,271,23.4c-.69-.95-1.24-2.46-2.81-1.83-1.42.56-.73,2-.74,3.05-.05,9.06-.07,18.11,0,27.17,0,1.86-.46,2.54-2.4,2.43-2.75-.16-5.53-.11-8.29,0-1.57.06-2.22-.41-2.21-2.08q.06-24.31,0-48.63c0-1.44.44-2.16,2-2a16.24,16.24,0,0,0,1.71,0c10.34,0,10,.2,15.68,8.86,5,7.7,10.84,14.89,16.25,22.35a2.25,2.25,0,0,0,2.5.91c1.23-.25.79-1.35.79-2.12,0-9.06.09-18.12,0-27.18,0-2.28.63-3,2.9-2.86a40.54,40.54,0,0,0,7.14,0c2.51-.24,3,.78,2.92,3.06C306.21,12.33,306.29,20.15,306.29,28Z"/><path class="cls-1" d="M403.35,27.79a22.84,22.84,0,0,1-2.3,10.51c-1.41,2.78-1.21,4.91,1.52,6.54,2.23,1.33,2.19,2.65.26,4.21a13.57,13.57,0,0,0-1.3,1.51c-1.2,1.34-2.21,3.39-3.67,3.78s-2.64-1.82-4-2.84c-1.66-1.27-3.16-.62-4.73.31-15.43,9.2-31.45.9-38-10.4C341.26,24.5,352.13,5,368.86.79,385.82-3.5,403.32,10.19,403.35,27.79Z"/><path class="cls-1" d="M188.81,18.51c0-6.11.05-10.59,0-15.07,0-1.48.44-2,2-2,2.47.1,5,.12,7.43,0,1.83-.1,2.24.64,2.22,2.33-.07,8,0,16,0,24,0,9.22,5.9,15.25,14.81,15.28s15-6.1,15.08-15.39c0-7.92.07-15.83-.05-23.74,0-2,.61-2.64,2.58-2.51,2.37.15,4.76.05,7.14,0,1.13,0,1.81.28,1.78,1.59-.27,9.62.67,19.27-.51,28.85-1.5,12.14-12.61,21.9-25.19,22.47-11.78.54-23.54-8.54-26.29-20.15C188.35,28.49,189,22.68,188.81,18.51Z"/><path class="cls-1" d="M104.85,42.62c4,0,8,.09,12,0,1.91-.06,2.51.61,2.41,2.46-.13,2.38,0,4.76,0,7.15,0,1.2-.19,2-1.68,2-9.23-.33-18.5.77-27.68-.65C77.67,51.65,67.91,40.25,67.77,28,67.64,16.06,77.09,4.59,88.93,2.19c6.62-1.34,13.3-.42,19.94-.67,2.76-.1,5.53.06,8.29,0,1.65-.07,2.18.55,2.11,2.15-.1,2.38-.11,4.77,0,7.14.08,1.81-.7,2.26-2.37,2.25-7.72-.07-15.44,0-23.16,0-6.39,0-10.92,3-13.47,8.81A15.48,15.48,0,0,0,83.4,38.51a13.46,13.46,0,0,0,9.73,4.1C97,42.63,101,42.62,104.85,42.62Z"/><path class="cls-1" d="M162.9,13c-3.72,0-7.43-.06-11.15,0-8.29.17-14,6.25-14,14.86s5.9,14.68,14.12,14.74c7.81.06,15.63.08,23.44,0,1.92,0,2.5.56,2.39,2.41-.14,2.47-.06,5,0,7.43,0,1.12-.22,1.82-1.56,1.77-9.23-.31-18.51.77-27.69-.63-12.2-1.85-22.07-13.33-22.22-25.51-.14-11.88,9.31-23.36,21.15-25.89a51.58,51.58,0,0,1,10.52-.65c5.81,0,11.63.07,17.44-.05,1.91,0,2.51.53,2.38,2.41a48,48,0,0,0,0,6.57c.13,2-.43,2.69-2.52,2.6C171.1,12.88,167,13,162.9,13Z"/><path class="cls-1" d="M65.52,54.18c-4.67,0-8.67-.07-12.67,0-1.53,0-2.16-.78-2.84-1.9Q42.59,40.15,35.09,28c-1.83-3-3.37-2.95-5.15,0C25.11,35.86,20.22,43.7,15.5,51.65a4.6,4.6,0,0,1-4.78,2.58c-3.52-.19-7,0-10.48,0-.56-.77,0-1.18.27-1.63Q15.74,28.75,30.92,4.91C32.3,2.72,32.7,2.78,34.11,5c7.76,12.4,15.74,24.65,23.64,37C60.26,45.88,62.73,49.8,65.52,54.18Z"/><path class="cls-2" d="M335.06,27.57c0,7.9-.09,15.8.06,23.7.05,2.45-.75,3.11-3.07,2.95-2.74-.19-5.52-.1-8.27,0-1.48,0-2-.5-2-2q.06-24.41,0-48.82c0-1.59.67-1.93,2.05-1.9,2.95.06,5.91.13,8.85,0,1.89-.09,2.44.53,2.42,2.41C335,11.78,335.06,19.68,335.06,27.57Z"/><path class="cls-3" d="M375.53,44.16c-9,0-15.39-5.33-16.54-13.58-1.22-8.77,3.18-16.07,11.16-18.53,12.56-3.87,24,6.33,21.47,19.13-.42,2.14-1.53,2.28-3,1.33a24.45,24.45,0,0,1-3.69-3.13c-.92-.92-1.53-.85-2.23.18-.54.78-1.2,1.48-1.81,2.21-1.26,1.54-3.37,3-3.55,4.63s2.5,2.53,3.76,3.92c1.58,1.73,1.31,2.61-1,3.39A16.64,16.64,0,0,1,375.53,44.16Z"/></g></g></svg>