<svg xmlns="http://www.w3.org/2000/svg" viewBox="0 0 349.3 99.21"><defs><style>.cls-1{fill:#b41e39;}.cls-2{fill:#fefefe;}</style></defs><title>Inbody</title><g id="Layer_2" data-name="Layer 2"><g id="Layer_1-2" data-name="Layer 1"><path class="cls-1" d="M137.74,37.86c6.81,4.09,9.39,10.38,9.65,17.86a48.34,48.34,0,0,1-.13,7.89c-.91,7.08-4.67,12.22-10.86,15.63a21.24,21.24,0,0,1-10.32,2.52q-19.39,0-38.78,0c-.73,0-.9-.21-.9-.91q0-40,0-79.95c0-.69.14-.92.88-.92,12.09,0,24.19,0,36.29,0a20.94,20.94,0,0,1,20.59,18.63,25.86,25.86,0,0,1-1.26,12.09A16.17,16.17,0,0,1,137.74,37.86Z"/><path class="cls-1" d="M263.16,31.88v-1.1q0-14.94,0-29.87c0-.7.13-.92.87-.91,4.5,0,9,0,13.5,0,.66,0,.79.19.79.81q0,40.07,0,80.11c0,.67-.15.86-.84.86-4.5,0-9,0-13.5,0-.42,0-.9.13-.82-.6,0-.34-.27-.22-.44-.17-3.27,1-6.63.78-10,.77-5.22,0-10.43.17-15.64-.1a21,21,0,0,1-19.16-16.17,18.62,18.62,0,0,1-.54-4.07c0-3.4-.07-6.81,0-10.21a21.06,21.06,0,0,1,16.66-19.72,24.14,24.14,0,0,1,4.86-.49h17.72A23.91,23.91,0,0,1,263.16,31.88Z"/><path class="cls-1" d="M181.45,81.76c-3-.06-6.8.13-10.55-.09A21.13,21.13,0,0,1,151.71,65a22.57,22.57,0,0,1-.47-4.77c0-3.32-.13-6.64.11-10A21.13,21.13,0,0,1,168,31.49a23.83,23.83,0,0,1,4.77-.49q9.51,0,19,0a21.2,21.2,0,0,1,20.78,15.84,19.43,19.43,0,0,1,.65,4.92c0,3.09,0,6.18,0,9.27a21.09,21.09,0,0,1-17.94,20.46,29.34,29.34,0,0,1-3.86.27Z"/><path class="cls-1" d="M314.7,62c.57-1,1.1-1.94,1.62-2.88Q324,45.42,331.6,31.75a1.3,1.3,0,0,1,1.33-.77c5.44,0,10.89,0,16.32,0,.15.32-.08.51-.2.72Q334.74,57.33,320.4,82.91a41.91,41.91,0,0,1-8.14,10.46,21.06,21.06,0,0,1-14.89,5.84c-2.24,0-4.47,0-6.71,0-.51,0-.68-.11-.68-.65q0-6.36,0-12.71c0-.57.21-.64.7-.64a33.75,33.75,0,0,0,6.43-.28c4.06-.83,6.79-3.34,8.79-6.82.24-.42.05-.7-.13-1L293.69,55.45l-13.15-23.6c-.48-.85-.47-.85.51-.85,5.13,0,10.26,0,15.39,0a1.4,1.4,0,0,1,1.46.85q8.16,14.7,16.36,29.37C314.38,61.42,314.52,61.64,314.7,62Z"/><path class="cls-1" d="M35.27,33.08c4.87-2,9.86-2.17,14.89-2.08,4.15.07,8.32-.22,12.46.16,9.07.84,16.55,6.91,18.3,15.63a20.07,20.07,0,0,1,.42,4c0,10,0,20,0,30.05,0,.78-.23.94-1,.93-4.44,0-8.88,0-13.32,0-.74,0-.89-.22-.89-.91,0-9.56,0-19.12,0-28.68a6.38,6.38,0,0,0-6.78-6.77q-8.68,0-17.37,0c-4.16,0-6.81,2.63-6.81,6.81q0,14.25,0,28.5c0,.82-.17,1.06-1,1-4.44,0-8.89,0-13.33,0-.65,0-.8-.18-.8-.81q0-24.6,0-49.2c0-.68.21-.79.82-.79,4.47,0,8.94,0,13.41,0,.75,0,1.06.16.94.93A7.37,7.37,0,0,0,35.27,33.08Z"/><path class="cls-1" d="M15.15,40.94q0,19.88,0,39.75c0,.93-.28,1.1-1.14,1.09-4.41,0-8.82,0-13.24,0-.65,0-.8-.17-.8-.81Q0,40.88,0,.78C0,.1.23,0,.83,0Q7.58,0,14.32,0c.68,0,.85.18.85.85Q15.14,20.89,15.15,40.94Z"/><path class="cls-2" d="M101.55,56.43c0-3.38,0-6.76,0-10.13,0-.58.13-.79.75-.79,6.51,0,13,0,19.52,0a10.54,10.54,0,0,1,10.32,10.32,10.69,10.69,0,0,1-7.7,11.07,11.75,11.75,0,0,1-3.06.41c-6.33,0-12.67,0-19,0-.74,0-.83-.27-.83-.89C101.57,63.13,101.55,59.78,101.55,56.43Z"/><path class="cls-2" d="M111.77,31c-3.15,0-6.3,0-9.45,0-.59,0-.78-.13-.78-.75q0-7.56,0-15.1c0-.65.19-.82.82-.81,6,0,12,0,18,0A8.31,8.31,0,1,1,120.79,31C117.78,31,114.78,31,111.77,31Z"/><path class="cls-2" d="M247.84,45.42c2.63,0,5.27,0,7.91,0a7.07,7.07,0,0,1,7.41,7.38q0,3.64,0,7.3A7,7,0,0,1,256,67.33c-5.47.06-10.94,0-16.41,0a7,7,0,0,1-7.1-7.16c0-2.52,0-5,0-7.55a7,7,0,0,1,7.24-7.2C242.45,45.4,245.14,45.42,247.84,45.42Z"/><path class="cls-2" d="M182.19,67.35h-8.33a7.07,7.07,0,0,1-7.45-7.43q0-3.64,0-7.29a7,7,0,0,1,7.23-7.21q8.55,0,17.1,0A7,7,0,0,1,198,52.5q.08,3.86,0,7.72a7,7,0,0,1-7.31,7.13c-1.43,0-2.86,0-4.3,0Z"/></g></g></svg>