<svg xmlns="http://www.w3.org/2000/svg" viewBox="0 0 398.84 99.11"><defs><style>.cls-1{fill:#231815;}.cls-2{fill:none;stroke:#231815;stroke-width:1.11px;}</style></defs><title>Tanita</title><g id="Layer_2" data-name="Layer 2"><g id="Layer_1-2" data-name="Layer 1"><path class="cls-1" d="M139,5.4A4.87,4.87,0,0,1,143.82.56H163a8.39,8.39,0,0,1,6.91,4.38l17.45,36.3c1.13,2.39,2.12,2.19,2.12-.46V5.47A4.87,4.87,0,0,1,194.33.62h16.46a4.87,4.87,0,0,1,4.84,4.85v88.8a4.87,4.87,0,0,1-4.84,4.84H191.61a8.19,8.19,0,0,1-6.84-4.38L167.85,58.56c-1.13-2.39-2.06-2.19-2.06.47V94.14A4.87,4.87,0,0,1,161,99H143.76a4.87,4.87,0,0,1-4.85-4.84V5.4ZM207.4,80.73v-67A4.55,4.55,0,0,0,203,9.85h-.07a4.56,4.56,0,0,0-4.51,4.51V76.62c0,1.32-1.13,1.59-1.73.39s-30.46-62.52-30.46-62.52A9.9,9.9,0,0,0,148,19.4V84.58A4.46,4.46,0,0,0,151.92,89h1.26A4.45,4.45,0,0,0,157,85V22.46c0-2.52,1.19-1.79,1.79-.47s31.06,62.85,31.06,62.85a9.59,9.59,0,0,0,7,4.25H199a9.57,9.57,0,0,0,8.43-8.36"/><path class="cls-1" d="M230.77,99a4.87,4.87,0,0,1-4.85-4.84V5.4A4.87,4.87,0,0,1,230.77.56H248A4.87,4.87,0,0,1,252.8,5.4V94.2A4.87,4.87,0,0,1,248,99.05H230.77Zm8.82-9.36c2.59,0,4.71-2.59,4.71-5.84V15.22c0-3.18-2.12-5.84-4.71-5.84s-4.71,2.59-4.71,5.84V83.78c-.07,3.19,2.06,5.84,4.71,5.84"/><path class="cls-1" d="M65.64,4.67A4.13,4.13,0,0,0,61.52.56H4.11A4.13,4.13,0,0,0,0,4.67v15a4.14,4.14,0,0,0,4.11,4.12H16.79a2.06,2.06,0,0,1,2.06,2V94.93A4.14,4.14,0,0,0,23,99.05H42a4.14,4.14,0,0,0,4.11-4.12V25.78a2.11,2.11,0,0,1,2.12-2.06H61.52a4.14,4.14,0,0,0,4.12-4.12Z"/><path class="cls-1" d="M131.61,93.8,109.18,4.14A5,5,0,0,0,104.6.56h-23a4.91,4.91,0,0,0-4.58,3.58L54.62,93.8a4.13,4.13,0,0,0,4,5.25H74.93a4.75,4.75,0,0,0,4.45-3.65L81,87.3a2.06,2.06,0,0,1,2-1.86h20.25a2,2,0,0,1,2,1.86l1.66,8.1a4.75,4.75,0,0,0,4.45,3.65h16.33a4.13,4.13,0,0,0,3.78-5.25M99.82,69.12H87.67a2.38,2.38,0,0,1-2.45-3l8.23-40.95c.33-1.66.86-1.66,1.19,0l7.7,40.88a2.54,2.54,0,0,1-2.52,3.06"/><path class="cls-1" d="M323.88,4.67A4.13,4.13,0,0,0,319.77.56H262.42a4.13,4.13,0,0,0-4.11,4.11v15a4.14,4.14,0,0,0,4.11,4.12H275.1a2.06,2.06,0,0,1,2.06,2V94.93a4.14,4.14,0,0,0,4.11,4.12h19a4.14,4.14,0,0,0,4.12-4.12V25.78a2.1,2.1,0,0,1,2.06-2.06h13.4A4.14,4.14,0,0,0,324,19.6V4.67Z"/><path class="cls-1" d="M389.85,93.8,367.42,4.14A5,5,0,0,0,362.84.56h-23a4.9,4.9,0,0,0-4.58,3.58L312.8,93.8a4.13,4.13,0,0,0,4,5.25h16.33a4.74,4.74,0,0,0,4.44-3.65l1.66-8.1a2.08,2.08,0,0,1,2.06-1.86h20.24a2,2,0,0,1,2.06,1.86l1.66,8.1a4.75,4.75,0,0,0,4.45,3.65H386a4.14,4.14,0,0,0,3.85-5.25M358.06,69.12H346a2.38,2.38,0,0,1-2.45-3l8.23-40.95c.33-1.66.86-1.66,1.19,0l7.7,40.88a2.62,2.62,0,0,1-2.59,3.06"/><circle class="cls-2" cx="390.45" cy="8.39" r="7.83"/><path class="cls-1" d="M388.33,4.74h3.12a2.25,2.25,0,0,1,1.06.2,1.49,1.49,0,0,1,.73,1.39,1.66,1.66,0,0,1-.53,1.33,2.33,2.33,0,0,1-1.46.33h-2.92Zm0,8.36v-4h2.92a2.24,2.24,0,0,1,1.12.2,1.19,1.19,0,0,1,.67,1.26l.06,1.59a6.44,6.44,0,0,0,.07.73.56.56,0,0,0,.13.34h1.6V13a.7.7,0,0,1-.4-.6,2.6,2.6,0,0,1-.07-.8l-.06-1.26A1.94,1.94,0,0,0,394,9.12a1.64,1.64,0,0,0-.86-.6,3.2,3.2,0,0,0,1-.86,2.23,2.23,0,0,0,.33-1.4A2.32,2.32,0,0,0,393.17,4a4.5,4.5,0,0,0-1.79-.33H387v9.49h1.33Z"/></g></g></svg>